:SAMPLES-PER-SECOND 30
:FULLY-SPECIFIED
:DEGREES
493
root  -50.6072 32.2393 37.408 170.906 53.7215 171.133
RightUpLeg  -25.5212 -22.3783 3.01084
RightLeg  47.2106 6.36728 5.97549
RightFoot  -14.4874 -0.351534 -2.2776
RightToes  -6.00224 -0.0178808 -0.0559076
Spine  0.261794 -5.05719 1.96416
Spine1  0.321889 -11.3321 5.50813
HEad  -79.4852 -14.9289 24.0495
LeftShoulder1  -1.94126e-019 -3.10601e-018 -2.51263e-017
LeftArm  -12.6925 15.4851 -76.3803
LeftForeArm  27.0917 -24.4037 -4.07936
LeftHand  -0.498708 -0.366502 10.1563
RightShoulder  -4.96962e-017 0 -2.36833e-017
RightArm  -46.4581 -46.5646 55.1895
RightForeArm  55.1626 5.01151 0.854285
RightHand  -0.0278535 -5.29069 -13.0448
LeftUpLeg  -33.9581 14.1686 3.56364
LeftLeg  60.7145 15.2202 22.0246
LeftFoot  -11.0203 -0.554859 -5.58537
LeftToes  -7.50701 2.40056e-006 -7.68412e-008
494
root  -51.2876 32.4705 38.2228 172.094 54.8576 171.329
RightUpLeg  -27.1004 -22.922 4.85501
RightLeg  44.2814 8.0161 6.78572
RightFoot  -11.3896 -0.264243 -2.17227
RightToes  -6.6729 -0.02024 -0.0620304
Spine  1.15975 -4.46662 1.57357
Spine1  2.17903 -10.0033 4.66345
HEad  -77.6397 -13.3178 23.1802
LeftShoulder1  -1.94126e-019 -3.10601e-018 -2.51263e-017
LeftArm  -15.2151 16.8957 -74.4943
LeftForeArm  24.5506 -20.1327 -3.46703
LeftHand  -0.459498 0.403142 10.7363
RightShoulder  -4.96962e-017 0 -2.36833e-017
RightArm  -49.9324 -47.4828 57.9521
RightForeArm  58.7459 5.11037 0.865067
RightHand  -0.0115243 -5.4331 -13.6143
LeftUpLeg  -34.5429 19.061 0.746871
LeftLeg  66.0659 13.0233 23.2897
LeftFoot  -12.1738 -0.667636 -6.09305
LeftToes  -5.32712 2.40056e-006 -7.68412e-008
495
root  -51.9065 32.7263 39.0609 173.51 56.5939 171.901
RightUpLeg  -27.9145 -22.7542 7.08125
RightLeg  40.2973 9.79148 7.18133
RightFoot  -7.87692 -0.152395 -1.74581
RightToes  -8.51563 -0.0270892 -0.0787066
Spine  1.8694 -3.79687 1.25916
Spine1  3.65257 -8.43633 3.86141
HEad  -74.8912 -10.9108 20.726
LeftShoulder1  -1.94126e-019 -3.10601e-018 -2.51263e-017
LeftArm  -16.8342 18.7755 -72.7852
LeftForeArm  24.2275 -15.9826 -2.82196
LeftHand  -0.425547 0.76939 10.6959
RightShoulder  -4.96962e-017 0 -2.36833e-017
RightArm  -54.3682 -47.256 60.6381
RightForeArm  60.5705 4.57804 0.769016
RightHand  0.0393381 -5.88483 -13.4629
LeftUpLeg  -33.1141 23.8972 -1.5455
LeftLeg  69.1778 11.5739 23.7407
LeftFoot  -11.681 -0.60454 -5.74326
LeftToes  -5.68089 2.40056e-006 -7.68412e-008
496
root  -52.5152 32.9653 39.8147 175.173 59.0108 172.967
RightUpLeg  -27.8732 -22.2101 9.44803
RightLeg  35.445 11.709 7.14917
RightFoot  -4.34506 -0.0588136 -1.09212
RightToes  -13.1614 -0.0467045 -0.119696
Spine  2.29899 -2.96589 1.17869
Spine1  4.52823 -6.54052 3.50106
HEad  -70.8812 -8.02773 15.8332
LeftShoulder1  -1.94126e-019 -3.10601e-018 -2.51263e-017
LeftArm  -18.0005 21.1677 -71.9568
LeftForeArm  27.0927 -12.7403 -2.26366
LeftHand  -0.415142 0.599648 10.079
RightShoulder  -4.96962e-017 0 -2.36833e-017
RightArm  -58.036 -46.3694 62.104
RightForeArm  61.041 3.79822 0.631838
RightHand  0.0716715 -6.24333 -12.4996
LeftUpLeg  -29.4299 28.9744 -3.08308
LeftLeg  69.5578 11.2375 23.4997
LeftFoot  -8.86994 -0.343562 -4.26586
LeftToes  -11.7096 2.40056e-006 -7.68412e-008
497
root  -53.1132 33.0856 40.521 178.162 61.0488 175.066
RightUpLeg  -28.2471 -21.95 12.2312
RightLeg  31.0032 13.8217 7.02996
RightFoot  -1.07933 -0.00738425 -0.348551
RightToes  -21.5333 -0.0901701 -0.189035
Spine  2.28673 -2.35712 1.35359
Spine1  4.49073 -5.25688 3.79386
HEad  -66.8195 -5.09853 10.4869
LeftShoulder1  -1.94126e-019 -3.10601e-018 -2.51263e-017
LeftArm  -18.5154 24.4033 -71.9203
LeftForeArm  31.3074 -11.7501 -2.08261
LeftHand  -0.418304 0.472309 9.90469
RightShoulder  -4.96962e-017 0 -2.36833e-017
RightArm  -59.4393 -45.1806 62.7213
RightForeArm  60.6322 3.5052 0.580559
RightHand  0.0478214 -6.0817 -11.5196
LeftUpLeg  -24.6257 33.0388 -3.96971
LeftLeg  67.1555 11.9902 22.5813
LeftFoot  -7.79227 -0.259577 -3.64842
LeftToes  -14.6646 2.40056e-006 -7.68412e-008
498
root  -53.6757 33.029 41.2183 -177.208 61.5701 178.506
RightUpLeg  -29.6993 -22.0543 15.5786
RightLeg  27.7732 15.0117 6.60414
RightFoot  1.40413 0.00198853 0.30652
RightToes  -30.3095 -0.146058 -0.254111
Spine  1.87385 -2.23884 1.86399
Spine1  3.59663 -5.12341 4.88569
HEad  -63.2035 -2.01212 4.7876
LeftShoulder1  -1.94126e-019 -3.10601e-018 -2.51263e-017
LeftArm  -18.2248 28.2483 -72.6216
LeftForeArm  34.1441 -12.1847 -2.16276
LeftHand  -0.421257 0.507596 10.0436
RightShoulder  -4.96962e-017 0 -2.36833e-017
RightArm  -57.5384 -44.0321 62.7663
RightForeArm  59.9523 4.20449 0.702607
RightHand  -0.0278291 -5.29354 -10.357
LeftUpLeg  -19.5169 34.6943 -3.92916
LeftLeg  62.7389 14.2887 22.3635
LeftFoot  -8.88086 -0.350304 -4.34708
LeftToes  -9.3635 2.40056e-006 -7.68412e-008
499
root  -54.1775 32.7938 41.9466 -173.232 59.4723 -178.439
RightUpLeg  -32.2528 -23.0829 18.7799
RightLeg  26.6406 14.5724 6.08218
RightFoot  2.43273 -0.00144992 0.536384
RightToes  -35.4112 -0.182903 -0.287761
Spine  1.42619 -2.68044 2.53808
Spine1  2.57989 -6.10012 6.29504
HEad  -59.4435 0.524568 -0.748864
LeftShoulder1  -1.94126e-019 -3.10601e-018 -2.51263e-017
LeftArm  -16.9042 31.0648 -73.4884
LeftForeArm  34.4373 -12.0318 -2.135
LeftHand  -0.411186 0.456275 9.70572
RightShoulder  -4.96962e-017 0 -2.36833e-017
RightArm  -54.2913 -43.0432 63.1861
RightForeArm  59.4964 5.64804 0.954874
RightHand  -0.122805 -4.07488 -9.50035
LeftUpLeg  -13.5696 33.1683 -3.1885
LeftLeg  55.73 18.6543 22.2893
LeftFoot  -5.12875 -0.132679 -2.8002
LeftToes  -9.73724 2.40056e-006 -7.68412e-008
500
root  -54.7428 32.3012 42.7739 -168.637 54.9267 -175.892
RightUpLeg  -38.7014 -24.8545 23.0518
RightLeg  29.0575 13.12 6.1404
RightFoot  2.19773 0.00305144 0.331272
RightToes  -36.0232 -0.18752 -0.291574
Spine  0.527766 -3.47184 3.39936
Spine1  0.574792 -7.83041 8.16244
HEad  -57.0666 2.37513 -5.65735
LeftShoulder1  -1.94126e-019 -3.10601e-018 -2.51263e-017
LeftArm  -16.7611 32.5689 -74.1221
LeftForeArm  34.4783 -11.3963 -2.01804
LeftHand  -0.405228 -0.0720558 8.68556
RightShoulder  -4.96962e-017 0 -2.36833e-017
RightArm  -47.8093 -42.9654 64.0206
RightForeArm  55.5844 8.33181 1.4098
RightHand  -0.137569 -3.84598 -9.25998
LeftUpLeg  -9.27187 28.7608 -2.32435
LeftLeg  44.8702 22.5958 18.5774
LeftFoot  -9.80574 -0.472327 -5.3404
LeftToes  -42.6281 2.40056e-006 -7.68412e-008
501
root  -55.4101 31.781 43.5185 -167.583 48.8396 -177.18
RightUpLeg  -47.1501 -28.3064 25.8102
RightLeg  34.0564 11.8185 6.83445
RightFoot  1.25283 0.00613797 -0.0182835
RightToes  -35.5719 -0.184111 -0.288767
Spine  -0.283985 -4.14755 3.66264
Spine1  -1.14286 -9.27008 8.82787
HEad  -56.8171 3.00075 -9.3657
LeftShoulder1  -1.94126e-019 -3.10601e-018 -2.51263e-017
LeftArm  -17.1786 30.7258 -74.1366
LeftForeArm  34.2141 -6.3804 -1.11184
LeftHand  -0.385601 -0.66358 7.50845
RightShoulder  -4.96962e-017 0 -2.36833e-017
RightArm  -41.5055 -43.4194 65.9503
RightForeArm  50.1329 11.1325 1.56372
RightHand  -0.120504 -4.09052 -9.39696
LeftUpLeg  -8.76404 23.5829 -3.20314
LeftLeg  36.3699 19.8496 12.2867
LeftFoot  -22.0932 -1.80187 -9.04903
LeftToes  -29.877 2.40056e-006 -7.68412e-008
502
root  -56.1876 31.414 44.2003 -171.384 42.0359 178.533
RightUpLeg  -52.9745 -32.8896 24.3239
RightLeg  38.7416 9.82909 6.81285
RightFoot  1.02797 0.00644141 -0.13704
RightToes  -38.1327 -0.203741 -0.304333
Spine  0.151876 -4.39608 2.47283
Spine1  -0.0340285 -9.88506 6.51584
HEad  -56.7004 1.43402 -11.1725
LeftShoulder1  -1.94126e-019 -3.10601e-018 -2.51263e-017
LeftArm  -18.4892 24.9858 -72.2679
LeftForeArm  35.0704 -4.12126 -0.711608
LeftHand  -0.371786 -0.618248 7.29327
RightShoulder  -4.96962e-017 0 -2.36833e-017
RightArm  -40.5774 -41.8888 71.0896
RightForeArm  47.9478 11.2842 1.57265
RightHand  -0.141476 -4.05385 -11.074
LeftUpLeg  -12.2472 19.4482 -5.31909
LeftLeg  41.043 16.003 11.8799
LeftFoot  -24.8176 -1.90118 -8.46365
LeftToes  -28.2532 2.40056e-006 -7.68412e-008
503
root  -56.6721 31.3646 45.101 -172.93 32.923 177.232
RightUpLeg  -55.941 -37.8968 24.0898
RightLeg  38.4431 6.86693 4.72349
RightFoot  1.76078 0.00941358 -0.0627544
RightToes  -38.6785 -0.208014 -0.307536
Spine  0.481639 -4.22789 1.86228
Spine1  0.744238 -9.55116 5.32115
HEad  -54.0513 -3.00038 -11.4093
LeftShoulder1  -1.94126e-019 -3.10601e-018 -2.51263e-017
LeftArm  -21.9288 18.5882 -71.9379
LeftForeArm  37.3841 -7.05104 -1.22745
LeftHand  -0.411504 -0.308524 8.47404
RightShoulder  -4.96962e-017 0 -2.36833e-017
RightArm  -47.3119 -39.1159 76.0146
RightForeArm  54.2984 8.07866 1.37799
RightHand  -0.129713 -4.31956 -12.5548
LeftUpLeg  -16.4807 19.401 -4.54092
LeftLeg  45.6557 9.55022 8.48109
LeftFoot  -22.6743 -1.00149 -4.83052
LeftToes  -33.2523 2.40056e-006 -7.68412e-008
504
root  -56.9312 31.4565 45.7544 -172.33 28.053 178.735
RightUpLeg  -55.1605 -37.9727 24.3652
RightLeg  35.1974 2.936 1.78254
RightFoot  2.87739 0.0170954 -0.128
RightToes  -32.9043 -0.164423 -0.271636
Spine  0.30209 -2.71171 2.05298
Spine1  0.406208 -6.5044 5.6314
HEad  -50.8114 -6.85417 -11.0729
LeftShoulder1  -1.94126e-019 -3.10601e-018 -2.51263e-017
LeftArm  -19.7918 16.4102 -73.8983
LeftForeArm  32.4766 -14.6791 -2.6272
LeftHand  -0.413608 0.0246076 9.01535
RightShoulder  -4.96962e-017 0 -2.36833e-017
RightArm  -41.4415 -37.405 76.1195
RightForeArm  56.8352 6.6047 1.12467
RightHand  -0.263051 -2.08186 -8.98204
LeftUpLeg  -17.8923 18.5069 -2.367
LeftLeg  45.8174 6.1966 5.56958
LeftFoot  -22.8297 -0.66056 -3.10925
LeftToes  -36.6984 2.40056e-006 -7.68412e-008
505
root  -57.5165 31.5772 45.6777 -174.858 28.803 177.227
RightUpLeg  -51.6558 -35.7294 19.374
RightLeg  33.7439 0.840347 0.471863
RightFoot  4.4644 0.0310204 -0.24014
RightToes  -26.2496 -0.118966 -0.225073
Spine  0.668492 -0.218924 1.50651
Spine1  1.29266 -1.52592 4.3468
HEad  -47.1956 -9.22879 -11.5368
LeftShoulder1  -1.94126e-019 -3.10601e-018 -2.51263e-017
LeftArm  -17.7268 16.9888 -76.7501
LeftForeArm  26.5504 -22.2458 -3.91705
LeftHand  -0.387557 -0.78134 7.41206
RightShoulder  -4.96962e-017 0 -2.36833e-017
RightArm  -30.1951 -33.4643 72.9122
RightForeArm  61.7093 4.98624 0.832249
RightHand  -0.180175 -0.236649 -4.0589
LeftUpLeg  -15.4293 16.8153 -4.67683
LeftLeg  43.9657 8.23804 6.91711
LeftFoot  -22.2415 -0.816477 -3.99036
LeftToes  -35.0645 2.40056e-006 -7.68412e-008
